# xmcd
#
# Track frame offsets:
#	150
#	9720
#	21188
#	31100
#	41815
#	53192
#	63693
#	74063
#	89806
#	100478
#
# Disc length: 1568 seconds
# Revision: 1
# Processed by: cddbd v1.5.2PL0 Copyright (c) Steve Scherf et al.
# Submitted via: dBpowerAMP V12.0
#
DISCID=93061e0a
DTITLE=Various Artist - Legendary Country Music Performers-Country Gold
DYEAR=1900
DGENRE=Country
TTITLE0=Faron Young - Hello Walls
TTITLE1=Patsy Cline - Walkin' After Midnight
TTITLE2=Dave Dudley - Six Days On the Road
TTITLE3=Willie Nelson - Touch Me (Live)
TTITLE4=Bobby Bare - That's How I Got To Memphis
TTITLE5=Billie Jo Spears - I'm So Lonesome I Could Cry
TTITLE6=Tommy Overstreet - Ann (Don't Go Runnin')
TTITLE7=Roy Clark - Me and Bobby McGee
TTITLE8=Billy Walker - Charlie's Shoes
TTITLE9=Glen Campbell - Southern Nights (Live)
EXTD=
EXTT0=
EXTT1=
EXTT2=
EXTT3=
EXTT4=
EXTT5=
EXTT6=
EXTT7=
EXTT8=
EXTT9=
PLAYORDER=
